PathFileType	4	(X/Y/Z)	Apose_0-50.trc
DataRate	CameraRate	NumFrames	NumMarkers	Units	OrigDataRate	OrigDataStartFrame	OrigNumFrames
30	30	7	22	m	30	40	50
Frame#	Time	Hip			RHip			RKnee			RAnkle			RBigToe			RSmallToe			RHeel			LHip			LKnee			LAnkle			LBigToe			LSmallToe			LHeel			Neck			Head			Nose			RShoulder			RElbow			RWrist			LShoulder			LElbow			LWrist		
		X1	Y1	Z1	X2	Y2	Z2	X3	Y3	Z3	X4	Y4	Z4	X5	Y5	Z5	X6	Y6	Z6	X7	Y7	Z7	X8	Y8	Z8	X9	Y9	Z9	X10	Y10	Z10	X11	Y11	Z11	X12	Y12	Z12	X13	Y13	Z13	X14	Y14	Z14	X15	Y15	Z15	X16	Y16	Z16	X17	Y17	Z17	X18	Y18	Z18	X19	Y19	Z19	X20	Y20	Z20	X21	Y21	Z21	X22	Y22	Z22
41	1.3666666666666667	0.04839176196576083	0.9204186127465541	0.35791547992076717	0.03930522269324717	0.8961195205495703	0.47423152749565256	0.005438459741738159	0.5063608966781072	0.4974897662169785	-0.01021312075571335	0.11555431464978452	0.5144618882557449	0.20857242873096807	0.041439371198919495	0.5626583043264537	0.1500637005675788	0.03258267598714407	0.6158313925478375	-0.055876309885230846	0.027704960051290837	0.5048835461715605	0.04166214129587748	0.8937643725441433	0.24599198825105453	0.03610201046002213	0.5101368482247339	0.21820552620174943	0.0006275639416124402	0.11814148702919523	0.20996974770424393	0.2103959248953416	0.038444685917864596	0.19251059484214972	0.16265069152112133	0.03719738942709275	0.13212490824875706	-0.0344902521795173	0.04045976682954524	0.2211873734048692	0.07147440227351415	1.571632472331602	0.3474425031285981	0.20523731838727707	1.811465267884572	0.3404151504423259	0.2783969599690493	1.6480814383505562	0.3620292118017686	0.035743173124693176	1.49274715586756	0.5370665234570157	0.08453006160748017	1.239843704178352	0.7154446723499184	0.13782474184958027	1.0398506154784515	0.8905320379898195	0.020609841524074822	1.4747733861199168	0.14853578683341245	0.027647593210891244	1.2274284898720234	0.004587291440168598	0.08208744498446854	1.0178059764332459	-0.14579482062728558
42	1.4	0.04935124882887938	0.9216646146274575	0.35884841689410085	0.04210680778704998	0.8954290856389864	0.47326454369480175	0.006424516846985682	0.5076885218516781	0.49780932928196997	-0.010546882713327472	0.1142219750339212	0.5121449103709679	0.20985578695443277	0.04042698389787956	0.5614670448057028	0.1509778373150777	0.03122332674985202	0.6135591051034868	-0.05590112044087632	0.027965797945911332	0.5063432044443062	0.0394994339478793	0.8918962002566575	0.2468273244622127	0.035065174005083195	0.5101969565686056	0.21764806085814994	0.000822412840120511	0.1183292325916668	0.21094682204763618	0.21115159257524624	0.039499116882380114	0.18991753496924785	0.1607038510913626	0.03672354159123646	0.1323190890197401	-0.03535542849819733	0.04143569926612821	0.22286935540476452	0.07622807312647555	1.594159531886756	0.3542959064819934	0.19609429378754636	1.8094292095903595	0.341146909804171	0.2732553599288344	1.6519271018164332	0.36107105090929453	0.037909043017214525	1.4936798196910561	0.5362132498891515	0.07033150319159161	1.23854490736954	0.7121370300767601	0.1388033711318328	1.041067243959092	0.889662626320221	0.017860991187394634	1.475835272908313	0.1485636099516135	0.026717579979145593	1.2255673623958203	0.0038727684894769346	0.08249918698979017	1.0174093807160065	-0.1453528472295167
43	1.4333333333333333	0.050873073697769035	0.92254771111753	0.35971443341809534	0.04359464086850868	0.8949092159917412	0.4735505283591531	0.009421874945248281	0.5067939834784806	0.4995263093635047	-0.007997068708306609	0.10023543481444569	0.5209856044433874	0.21028106646340566	0.0388401904393354	0.5599914555262682	0.1517700569908692	0.028670937554580923	0.613254742207655	-0.05408252441244887	0.028465316939346962	0.5023502002894228	0.040005997181715755	0.8928415415964246	0.2479624478426775	0.015160468659609473	0.5064251089929042	0.2217908348961803	0.0017229174977663002	0.11569349382602505	0.20910311064665213	0.21067356717813562	0.03574882189501792	0.19053913035275943	0.16190308914010068	0.034644416216970945	0.13039351581721612	-0.03640294876241662	0.03972358947966291	0.22182683704853687	0.07349755653643533	1.5950464499809118	0.3511807446907483	0.17632131931472944	1.8096402246965821	0.3259964759849786	0.27016455157247843	1.6541118945161348	0.361336178943609	0.03848085591141181	1.4952875966041193	0.5346528082038806	0.0839216920454684	1.2312006174806	0.7177412841691935	0.1611059398764668	1.027405785531148	0.8828036160590331	0.021294745227888358	1.476695022592114	0.14428300391901902	0.030323205128291415	1.226365519215923	0.006300960742889035	0.08513559018910884	1.0162132249725804	-0.14391243263786682
44	1.4666666666666666	0.05247728685571949	0.9211832650083578	0.3601200159765695	0.04361123180389378	0.8941357631841133	0.476250679899177	0.006599889823073697	0.5047612282867836	0.49993331206629293	-0.006268012807140634	0.09887214533008876	0.5198288034988869	0.20751450253837067	0.0388315343151739	0.5559051912811604	0.152660728461335	0.027453941865047245	0.611756495983618	-0.05635407526818285	0.025159791310376232	0.5025427715069566	0.041832269358020556	0.890121824248873	0.2478424677128566	0.016103887221212275	0.5070128027694067	0.22380758204922524	0.00012102330645815988	0.11780731485678353	0.20761882658435177	0.21089986803638933	0.03857911232184517	0.1894591207613671	0.16476586639020574	0.03616493838420799	0.13092351061543692	-0.03421309152450465	0.03986142890943669	0.22362298772857672	0.06603975411837645	1.5766904205001924	0.3466653757888188	0.171689652780366	1.8103779134599154	0.3253538651138324	0.2688296579322315	1.6558910681992451	0.35859441503147593	0.03811627991582381	1.4943535810130764	0.5362742638004357	0.090925169480621	1.2401870234950476	0.711244289074847	0.16250283256671022	1.0247736017524331	0.8830514735321835	0.02052240016590301	1.4763752223755147	0.14456044231462142	0.030586076073756123	1.226877562822682	0.005784304716975402	0.08607117178821526	1.0150864641998614	-0.14649275771557826
45	1.5	0.05110240687101665	0.9212368876472196	0.3606162934795654	0.0448904599176722	0.8955303809987146	0.4747534725545694	0.009116851476289947	0.5068888020280066	0.49948701610595914	-0.005877640829213884	0.1017229037887708	0.5176654955082495	0.21032652762941884	0.039794151179082325	0.560760099273234	0.15336236161311032	0.028779708574591483	0.6139059231871853	-0.052109425003454654	0.02915264342498512	0.5011158120047606	0.043350656723761705	0.8916057624049303	0.2490571419393726	0.017754667331859778	0.5077105701637125	0.22457651248223554	0.0016419160174369612	0.1192516655358202	0.210542470537124	0.2098497249455365	0.0364762911702166	0.1904873746061071	0.16469971095293523	0.03572942910557062	0.13204314521668897	-0.03463586378406642	0.04081316293238744	0.22267975406376547	0.06440811822018755	1.5751347716367876	0.3477203589333206	0.16882805261532005	1.8125740534004473	0.32479349468370067	0.26723681262100607	1.6579322685704458	0.3572212005940585	0.03894662001923228	1.492365528422579	0.537904490154383	0.08693401367002353	1.2296257884287045	0.7182526562385397	0.1641813572440908	1.028124154484947	0.881135139177852	0.017652541079740236	1.475501862125144	0.14701059607175632	0.029135585759159074	1.2263154296342809	0.007389868399888221	0.08499839542940936	1.014351410979981	-0.14523327729111465
46	1.5333333333333334	0.05175246012070291	0.9211818017970904	0.3600009666547995	0.04426643602046047	0.8967586330103354	0.47656730137050035	0.009721156437017712	0.5079770068271932	0.49872461767782683	-0.008016645451498309	0.10100414844983034	0.5191590646532788	0.21204150268022776	0.04240049906362689	0.565017388718748	0.13648139443633403	0.02639799238484011	0.6330333887757641	-0.05203462036826928	0.0302175268613328	0.5026378300824491	0.044777160363849565	0.8914446433045733	0.2487978651915048	0.018796265619615605	0.5071567733578342	0.22531477558859644	0.0026939201551344594	0.11806942521211995	0.2092595675389051	0.2097253749450161	0.03778335148878693	0.1918359013291818	0.16306650612193746	0.03880840904841361	0.13293492571803903	-0.03292348664566793	0.03886193084963957	0.22185147696965882	0.06821674698241373	1.593915770589469	0.35007452734423306	0.18449004816351788	1.81658006772324	0.3444118825418561	0.26340583734038847	1.6601318359879165	0.3570721219128349	0.03833657289433502	1.4907653662838987	0.537243323273543	0.09025982754374595	1.2410285499882214	0.7147636121769283	0.17024243831281188	1.0271159648661965	0.8782099152782408	0.016803252868104065	1.47658655729567	0.14654438117347277	0.027599999875142927	1.2258036778019292	0.003118483614690711	0.08678266353304591	1.0149392090304734	-0.14568000324792882
47	1.5666666666666667	0.05508901348399316	0.9210650255384364	0.3600187019382062	0.04609592496643307	0.8976462630846062	0.47761262791356707	0.010614629126970827	0.5053599576510879	0.5008383298906898	-0.00989473535725646	0.10169620086051316	0.518973066456686	0.21154894616286254	0.04375125787565839	0.5649679005629603	0.13800749296306833	0.025756068396310915	0.6334491945727507	-0.05307192842944828	0.02955564571701964	0.5020019100835029	0.046886832429761376	0.8917126780007572	0.24906318902575725	0.021951688606911587	0.508423677621054	0.2227376346624203	0.004200762846478372	0.11891995816010019	0.2085726168804099	0.21046290461064426	0.03768290810048841	0.1927092362150496	0.16401426231405405	0.03773015037836812	0.13325098993961085	-0.0321498267910491	0.04337765702644432	0.22171397054071834	0.06597171915373148	1.574134858549119	0.3458727665970551	0.18312482594672225	1.818968280312198	0.341569912321759	0.26184280491632217	1.6641080862424251	0.35447222436270753	0.04014840413650101	1.4917958464636931	0.5376071897008963	0.08952566294533208	1.2403926995008225	0.7155609120471798	0.16572974644004246	1.0291931755098331	0.8801788848004596	0.015189244170327628	1.475400208125349	0.14807053035972553	0.02835098540932908	1.2241814526640886	0.0029669266919918843	0.08583550867515573	1.013289961331587	-0.14767504286373104
